# xmcd
#
# Track frame offsets:
#	150
#	15777
#	35227
#	46977
#	60925
#	76725
#	91777
#	106500
#	121777
#	138160
#	154252
#	169575
#	186525
#	200925
#	218100
#	232327
#
# Disc length: 3298 seconds
#
# Revision: 0
# Processed by: cddbd v1.5.2PL0 Copyright (c) Steve Scherf et al.
# Submitted via: audiograbber 1.83.01
#
DISCID=cc0ce010
DTITLE=Truck Stop - Star Collection [CD 2/2)
DYEAR=1997
DGENRE=Country and Western
TTITLE0=Du bist der absolute Wahnsinn (live)
TTITLE1=Lass mich geh'n
TTITLE2=Freiheit
TTITLE3=Asphaltfieber
TTITLE4=Ich steh auf Jeans und Country-Music
TTITLE5=Black Jack
TTITLE6=Louisiana Ladies
TTITLE7=Trucker bleibt Trucker
TTITLE8=Silverado
TTITLE9=Freunde bleiben
TTITLE10=Banditos der Liebe
TTITLE11=In der Hitze der Nacht
TTITLE12=Dann kommt Country-Musik
TTITLE13=Vater und Sohn
TTITLE14=Das letzte Paradies
TTITLE15=Herz aus Gold
EXTD=
EXTT0=
EXTT1=
EXTT2=
EXTT3=
EXTT4=
EXTT5=
EXTT6=
EXTT7=
EXTT8=
EXTT9=
EXTT10=
EXTT11=
EXTT12=
EXTT13=
EXTT14=
EXTT15=
PLAYORDER=
